<?xml version="1.0" encoding="utf-8"?>
<!-- Generator: Adobe Illustrator 16.0.4, SVG Export Plug-In . SVG Version: 6.00 Build 0)  -->
<!DOCTYPE svg PUBLIC "-//W3C//DTD SVG 1.1//EN" "http://www.w3.org/Graphics/SVG/1.1/DTD/svg11.dtd">
<svg version="1.1" id="Ebene_3" xmlns="http://www.w3.org/2000/svg" xmlns:xlink="http://www.w3.org/1999/xlink" x="0px" y="0px"
	 width="297.638px" height="209.764px" viewBox="0 0 297.638 209.764" enable-background="new 0 0 297.638 209.764"
	 xml:space="preserve">
<g id="Ebene_2" display="none">
</g>
<rect id="Rahmen" x="6.339" y="20.448" fill="none" stroke="#DC3639" stroke-width="2" stroke-miterlimit="10" width="284.96" height="161.829"/>
<g>
	<polygon fill="none" stroke="#FFFFFF" stroke-width="2" stroke-miterlimit="10" points="162.105,14.698 151.873,14.698 
		148.712,4.967 145.55,14.698 135.317,14.698 143.596,20.712 140.435,30.443 148.712,24.429 156.989,30.443 153.827,20.712 	"/>
	<polygon fill="#DC3639" points="148.712,4.967 151.873,14.698 140.435,30.443 143.596,20.712 135.317,14.698 145.55,14.698 	"/>
	<polygon points="151.873,14.698 162.105,14.698 153.827,20.712 156.989,30.443 148.712,24.429 140.435,30.443 	"/>
</g>
<g id="Antifa_Logo">
	<g>
		<g id="g12" transform="matrix(1.25,0,0,-1.25,0,367.35)">
			<g id="g14" transform="scale(0.12,0.12)">
				<path id="path20" fill="#FFFFFF" d="M992.122,1086.044c-72.474,0-131.549,59.076-131.549,131.55
					c0,72.48,59.076,131.556,131.549,131.556c72.481,0,131.556-59.075,131.556-131.556
					C1123.678,1145.12,1064.603,1086.044,992.122,1086.044z"/>
				<path id="path20_1_" fill="#3C3A3A" d="M992.122,1092.711c-68.802,0-124.883,56.081-124.883,124.883
					c0,68.809,56.081,124.889,124.883,124.889s124.889-56.081,124.889-124.889
					C1117.012,1148.792,1060.924,1092.711,992.122,1092.711z M992.122,1121.103c53.464,0,96.497,43.027,96.497,96.491
					c0,53.464-43.034,96.497-96.497,96.497c-53.46,0-96.494-43.034-96.494-96.497
					C895.628,1164.13,938.662,1121.103,992.122,1121.103z"/>
				<path id="path22" fill="#DD363A" d="M1030.573,1132.359l45.716,126.53l-3.704,2.174c-11.1,10.02-15.892,16.328-27.65,20.905
					c-18.079,7.031-33.093-6.751-48.555-10.885c-23.75-6.361-45.615-4.7-65.645,8.581c-2.155,1.432-2.894,2.832-4.574,4.792
					c-14.154-15.677-25.085-35.853-27.197-59.186c-0.059-0.677,0.107-1.068,0.218-1.738c4.792-3.926,39.287-36.302,87.406-19.102
					c19.46,6.953,32.441-0.872,49.206-11.322c2.728-1.699,2.565-1.673,4.141-2.832l-20.69-62.702l5.443,1.523L1030.573,1132.359"/>
				<path id="path24" fill="#3C3A3A" d="M1015.547,1199.423l-27.279-75.358c-1.348-0.059-2.116-0.065-3.457,0.059
					c-2.396,0.221-3.757,0.521-6.022,1.309l13.9,41.113l-2.181,1.523c-8.053,3.047-11.693,5.645-22.425,3.704
					c-22.861-4.141-52.754,6.543-63.932,29.922c-2.396,5.006-3.727,7.311-4.531,12.389c-0.329,2.09-0.436,3.294-0.436,5.41
					c21.989-18.197,44.222-27.415,74.561-22.246c14.258,2.422,23.346,9.876,36.797,4.564
					C1012.552,1201.018,1013.672,1200.504,1015.547,1199.423"/>
				<path id="path2833" fill="#FFFFFF" d="M894.645,1263.831l-5.013,4.883l6.995-0.99 M899.687,1267.281l4.098-0.501l1.738,3.418
					l-19.984,2.35l-1.263-2.474l13.564-14.954l1.716,3.366l-2.77,3.105"/>
				<path id="path26" fill="#FFFFFF" d="M1099.486,1262.333l2.858,1.27l-3.874,8.685l-16.797-7.474l3.867-8.685l2.858,1.27
					l-2.415,5.41l4.544,2.025l2.324-5.215l2.852,1.27l-2.324,5.215l3.698,1.647L1099.486,1262.333"/>
				<path id="path2857" fill="#FFFFFF" d="M917.904,1311.363l11.322-14.492l2.822,2.207l-11.318,14.486L917.904,1311.363z"/>
				<path id="path2845" fill="#FFFFFF" d="M909.102,1275.562l-9.837,7.682l0.026,0.039l16.087-0.28l1.595,2.031l-14.779,11.549
					l-2.207-2.826l9.743-7.611l-0.029-0.039l-16.087,0.28l-1.592-2.031l14.873-11.693L909.102,1275.562z"/>
				<path id="path2843" fill="#FFFFFF" d="M1079.401,1268.577l15.593,9.746l-1.895,3.034l-6.139-3.835l-3.522,5.625l6.146,3.841
					l-1.901,3.04l-15.592-9.746l1.901-3.04l6.973,4.355l3.477-5.579l-6.934-4.401L1079.401,1268.577L1079.401,1268.577z"/>
				<path id="path2841" fill="#FFFFFF" d="M913.467,1303.473l2.666,2.572l-2.168,2.246l-7.91-7.643l2.168-2.246l2.666,2.578
					l10.605-10.983l2.578,2.487L913.467,1303.473z"/>
				<path id="path28" fill="#FFFFFF" d="M1082.188,1295.387c-0.352,1.374-1.029,2.669-2.012,3.724
					c-3.672,3.945-9.557,3.496-13.372-0.065c-3.711-3.464-4.362-9.303-0.833-13.086c1.016-1.087,2.266-1.751,3.646-2.298l3.119,2.91
					c-1.523-0.052-3.158,0.527-4.206,1.647c-2.279,2.441-1.406,6.055,0.859,8.164c2.318,2.161,5.977,2.878,8.327,0.365
					c1.048-1.126,1.543-2.728,1.335-4.29L1082.188,1295.387"/>
				<path id="path2875" fill="#FFFFFF" d="M933.242,1321.956l-7.65-4.967l10.016-15.423l3.005,1.953l-4.408,6.79l4.355,2.825
					l-1.699,2.624l-4.359-2.832l-2.204,3.392l4.642,3.021L933.242,1321.956z"/>
				<path id="path2909" fill="#FFFFFF" d="M1013.144,1316.747l3.19,18.112l-3.529,0.625l-3.19-18.112L1013.144,1316.747z"/>
				<path id="path2903" fill="#FFFFFF" d="M1036.615,1308.642l6.211,13.939l3.385-1.504l1.27,2.852l-10.046,4.473l-1.27-2.852
					l3.385-1.504l-6.211-13.952L1036.615,1308.642L1036.615,1308.642z"/>
				<path id="path2901" fill="#FFFFFF" d="M1045.658,1303.603l9.193,15.925l-3.105,1.79l-9.193-15.924L1045.658,1303.603
					L1045.658,1303.603z"/>
				<path id="path2899" fill="#FFFFFF" d="M985.221,1336.754c-1.315,0.527-2.767,0.736-4.193,0.566
					c-5.352-0.658-8.444-5.684-7.806-10.866c0.615-5.032,4.961-8.997,10.091-8.366c1.478,0.182,2.754,0.807,4.01,1.602l-0.527,4.232
					c-0.853-1.257-2.279-2.246-3.802-2.428c-3.314-0.41-5.723,2.415-6.104,5.488c-0.387,3.145,1.188,6.536,4.6,6.953
					c1.523,0.189,3.118-0.358,4.251-1.445L985.221,1336.754L985.221,1336.754z"/>
				<path id="path32" fill="#FFFFFF" d="M995.885,1330.042l0.501,7.227l-3.574,0.254l-1.283-18.346l3.574-0.247l0.573,8.197
					l6.621-0.462l-0.573-8.197l3.574-0.254l1.283,18.346l-3.574,0.247l-0.508-7.22L995.885,1330.042"/>
				<path id="path34" fill="#FFFFFF" d="M1036.647,1105.035l3.19,1.628l-5.664,11.126l0.046,0.02l14.453-7.057l2.305,1.178
					l-8.509,16.706l-3.197-1.628l5.612-11.016l-0.046-0.02l-14.46,7.057l-2.298-1.178L1036.647,1105.035"/>
				<path id="path2830" fill="#FFFFFF" d="M1019.453,1099.495c5.228,1.211,7.865,6.374,6.686,11.504
					c-1.159,5.013-5.814,8.568-11.035,7.363c-5.228-1.204-7.852-6.439-6.693-11.452
					C1009.596,1101.773,1014.225,1098.29,1019.453,1099.495z M1015.898,1114.918c3.066,0.71,5.924-1.712,6.595-4.609
					c0.625-2.708-0.859-6.68-3.835-7.363c-2.969-0.69-6.048,2.227-6.667,4.941
					C1011.322,1110.784,1012.832,1114.208,1015.898,1114.918z"/>
				<path id="path2832" fill="#FFFFFF" d="M1001.224,1116.031l-3.587-0.065l0.326-18.385l3.587,0.065L1001.224,1116.031z"/>
				<path id="path2834" fill="#FFFFFF" d="M987.396,1113.225l3.678-0.391l0.332,3.105l-10.938,1.152l-0.332-3.105l3.691-0.391
					l-1.595-15.182l3.561-0.371L987.396,1113.225z"/>
				<path id="path2836" fill="#FFFFFF" d="M963.994,1112.678l-0.049,0.013l1.745,7.552l-3.493,0.807l-4.137-17.917l3.493-0.807
					l1.862,8.053l0.046-0.006l3.867-9.381l4.492-1.035l-4.951,11.309l8.704,6.693l-4.297,0.996L963.994,1112.678L963.994,1112.678z"
					/>
				<path id="path2838" fill="#FFFFFF" d="M946.94,1111.461l-0.215-4.121l3.525-1.497l0.954,20.098l-2.559,1.087l-13.975-14.57
					l3.48-1.478l2.907,2.975L946.94,1111.461L946.94,1111.461z M947.161,1114.54l-4.017,1.712l4.476,5.358l0.042-0.026
					L947.161,1114.54z"/>
			</g>
		</g>
		<path id="path2833-0" fill="#FFFFFF" d="M141.949,170.056l-0.124-1.042l0.722,0.776 M142.863,170.13l0.43,0.445l0.525-0.233
			l-2.107-2.161l-0.381,0.169l0.169,3.024l0.518-0.23l-0.029-0.624"/>
		<path id="path3917" fill="#FFFFFF" d="M144.447,167.263c-0.109-0.001-0.212,0.011-0.3,0.036c-0.446,0.128-0.671,0.575-0.545,1.016
			c0.118,0.411,0.416,0.512,0.797,0.555c0.231,0.021,0.506,0.026,0.584,0.301c0.059,0.204-0.021,0.419-0.231,0.48
			c-0.222,0.062-0.459-0.064-0.588-0.249l-0.156,0.274l-0.085,0.147c0.271,0.253,0.598,0.389,0.963,0.284
			c0.268-0.077,0.46-0.23,0.565-0.432c0.107-0.205,0.126-0.456,0.049-0.725c-0.255-0.89-1.253-0.403-1.381-0.85
			c-0.049-0.172,0.073-0.345,0.238-0.392c0.172-0.05,0.324-0.001,0.46,0.104l0.137-0.428
			C144.82,167.304,144.629,167.265,144.447,167.263z"/>
		<path id="path3917-1" fill="#FFFFFF" d="M154.561,167.679c-0.088-0.063-0.179-0.113-0.267-0.144
			c-0.439-0.151-0.88,0.087-1.029,0.52c-0.14,0.404,0.047,0.658,0.335,0.912c0.177,0.149,0.399,0.312,0.307,0.581
			c-0.069,0.2-0.258,0.331-0.466,0.26c-0.218-0.074-0.339-0.315-0.339-0.54l-0.285,0.135l-0.154,0.072
			c0.076,0.362,0.267,0.661,0.626,0.785c0.264,0.09,0.509,0.074,0.71-0.029c0.206-0.106,0.365-0.302,0.456-0.566
			c0.301-0.875-0.796-1.048-0.645-1.487c0.059-0.17,0.257-0.24,0.42-0.185c0.169,0.059,0.266,0.186,0.317,0.35l0.357-0.271
			C154.844,167.926,154.709,167.783,154.561,167.679L154.561,167.679z"/>
		<path id="path2847-4" fill="#FFFFFF" d="M159.251,170.242c-0.233,0.011-0.459,0.128-0.617,0.33
			c-0.041,0.051-0.074,0.101-0.099,0.15c-0.137,0.278-0.043,0.536,0.118,0.82c0.118,0.199,0.276,0.425,0.101,0.649
			c-0.131,0.167-0.353,0.233-0.525,0.098c-0.182-0.142-0.217-0.411-0.144-0.623l-0.483,0.052c-0.046,0.368,0.036,0.713,0.336,0.947
			c0.444,0.347,0.956,0.249,1.297-0.187c0.569-0.729-0.41-1.25-0.124-1.616c0.11-0.141,0.318-0.142,0.454-0.036
			c0.141,0.11,0.19,0.262,0.186,0.435l0.432-0.141c-0.009-0.128-0.066-0.27-0.144-0.398c-0.074-0.122-0.167-0.233-0.262-0.307
			C159.616,170.291,159.432,170.234,159.251,170.242z"/>
	</g>
</g>
<g id="Text">
	<text transform="matrix(1 0 0 1 106.8013 60.1074)" font-family="'LinLibertineO'" font-size="18">Hier wurde</text>
	<text transform="matrix(1 0 0 1 92.6353 92.8574)"><tspan x="0" y="0" font-family="'LinLibertineOB'" font-size="32" letter-spacing="4">Nazi- </tspan><tspan x="-79.536" y="32" font-family="'LinLibertineOB'" font-size="32" letter-spacing="4">Propaganda</tspan></text>
	<text transform="matrix(1 0 0 1 111.3921 148.3574)" font-family="'LinLibertineO'" font-size="18">überklebt!</text>
	<line fill="none" stroke="#000000" stroke-width="0.5" stroke-miterlimit="10" x1="65.202" y1="38.917" x2="232.089" y2="38.917"/>
	
		<line fill="none" stroke="#000000" stroke-width="0.5" stroke-miterlimit="10" x1="65.202" y1="159.417" x2="232.089" y2="159.417"/>
</g>
</svg>
